<svg width="77" height="50" xmlns="http://www.w3.org/2000/svg">
 <g id="Layer_1">
  <title>Layer 1</title>
  <g>
   <g>
    <title>Layer 1</title>
    <g display="none" class="st0" id="svg_10"/>
    <g display="none" class="st0" id="svg_9"/>
    <g display="none" class="st0" id="svg_8"/>
    <g id="svg_2">
     <g id="svg_3">
      <path fill="#F15A22" d="m41.81102,34.17833l18.15192,10.05538l1.63237,0.71824c-0.84883,-0.06529 -1.11001,-0.13059 -1.82825,-0.13059c-0.52236,0 -1.30589,0 -1.82825,0s-1.11001,0 -1.63237,0l-3.19944,0l-1.63237,0l-3.13414,0l-1.63237,0l-4.96239,0l0,6.39888l4.96239,0l1.63237,0l3.13414,0l1.63237,0l3.19944,0l1.63237,0l3.13414,0l1.63237,0l3.13414,0l1.63237,0l3.13414,0l1.63237,0l4.76651,0l0,-4.76651l0,-1.63237l0,-3.13414l0,-1.63237l0,-3.13414l0,-1.63237l0,-6.46417l-6.39888,0l0,0.06529l0,6.39888l0,0.78354l0,0.84883l0,3.13414l0,0.78354l0,0.78354l0,0.84883l-24.4855,-13.77717l-4.44004,0l0,5.48475l0.13059,0z" class="st2" id="svg_7"/>
      <path fill="#414042" d="m0.02244,45.86608l18.15192,-10.12067l1.63237,-0.71824c-0.84883,0.06529 -1.11001,0.13059 -1.82825,0.13059c-0.52236,0 -1.30589,0 -1.82825,0c-0.52236,0 -1.11001,0 -1.63237,0l-3.19944,0l-1.63237,0l-3.13414,0l-1.63237,0l-4.96239,0l0,-6.39888l4.96239,0l1.63237,0l3.13414,0l1.63237,0l3.19944,0l1.63237,0l3.13414,0l1.69766,0l3.13414,0l1.63237,0l3.13414,0l1.63237,0l4.76651,0l0,4.76651l0,1.63237l0,3.13414l0,1.63237l0,3.13414l0,1.63237l0,6.46417l-6.39888,0l0,-0.06529l0,-6.39888l0,-0.78354l0,-0.84883l0,-3.13414l0,-0.78354l0,-0.78354l0,-0.84883l-28.92553,16.25837l0,-2.4812l0.06529,-5.41946l0,0z" class="st1" id="svg_6"/>
      <path fill="#F15A22" d="m41.81102,16.94054l18.15192,-10.05538l1.63237,-0.71824c-0.84883,0.06529 -1.11001,0.13059 -1.82825,0.13059c-0.52236,0 -1.30589,0 -1.82825,0s-1.11001,0 -1.63237,0l-3.19944,0l-1.63237,0l-3.13414,0l-1.63237,0l-4.96239,0l0,-6.46417l4.96239,0l1.63237,0l3.13414,0l1.63237,0l3.19944,0l1.63237,0l3.13414,0l1.63237,0l3.13414,0l1.63237,0l3.13414,0l1.63237,0l4.76651,0l0,4.76651l0,1.63237l0,3.13414l0,1.63237l0,3.19944l0,1.63237l0,6.46417l-6.39888,0l0,-0.06529l0,-6.39888l0,-0.78354l0,-0.84883l0,-3.13414l0,-0.78354l0,-0.78354l0,-0.84883l-24.4855,13.77717l-4.44004,0l0,-5.48475l0.13059,0z" class="st2" id="svg_5"/>
      <path fill="#F15A22" d="m35.34685,16.94054l-18.15192,-10.12067l-1.63237,-0.71824c0.84883,0.06529 1.11001,0.13059 1.82825,0.13059c0.52236,0 1.30589,0 1.82825,0s1.11001,0 1.63237,0l3.19944,0l1.63237,0l3.13414,0l1.63237,0l4.96239,0l0,-6.39888l-4.96239,0l-1.63237,0l-3.13414,0l-1.63237,0l-3.19944,0l-1.63237,0l-3.13414,0l-1.63237,0l-3.13414,0l-1.63237,0l-3.13414,0l-1.63237,0l-4.76651,0l0,4.76651l0,1.63237l0,3.13414l0,1.63237l0,3.19944l0,1.63237l0,6.46417l6.39888,0l0,-0.06529l0,-6.39888l0,-0.78354l0,-0.84883l0,-3.13414l0,-0.78354l0,-0.78354l0,-0.84883l24.4855,13.77717l4.44004,0l0,-5.48475l-0.13059,0z" class="st2" id="svg_4"/>
     </g>
    </g>
    <g display="none" class="st0" id="svg_1"/>
   </g>
  </g>
 </g>

</svg>